<?xml version="1.0" encoding="UTF-8"?>
<!-- Generator: Adobe Illustrator 18.0.0, SVG Export Plug-In . SVG Version: 6.00 Build 0)  -->
<!DOCTYPE svg PUBLIC "-//W3C//DTD SVG 1.1//EN" "http://www.w3.org/Graphics/SVG/1.1/DTD/svg11.dtd">
<svg version="1.1" id="Layer_1" xmlns="http://www.w3.org/2000/svg" xmlns:xlink="http://www.w3.org/1999/xlink" x="0px" y="0px" viewBox="0 0 298.3 87.7" enable-background="new 0 0 298.3 87.7" xml:space="preserve">
<g>
	<path fill="#231F20" d="M80.4,44.1c-0.5-1-1.8-1.8-2.8-1.8h-2.2c-1.1,0-2.3,0.8-2.8,1.8L55.1,80.5c-0.5,1,0,1.6,1.1,1.6h4   c1.6,0,2.3-0.7,2.7-1.6c0.4-0.9,1.4-2.8,1.6-3.2c0.2-0.5,1-0.9,2.1-0.9l18.7,0c1.1,0,1.8,0.2,2.1,0.8c0.2,0.4,1.2,2.1,1.6,3.1   c0.5,0.9,1.3,1.7,2.8,1.7h5.8c1.1,0,1.5-0.8,1.2-1.6C98.5,79.8,80.4,44.1,80.4,44.1z M69.4,70.8c-1.1,0-1.6-0.8-1.1-1.8l6.9-14.7   c0.5-1,1.2-1,1.6,0l6.7,14.7c0.4,1-0.1,1.8-1.1,1.8L69.4,70.8z M214.7,44.4c0,0.4,0,35.3,0,36c0,1,0.9,1.7,2,1.7h4.8   c1.1,0,2-0.7,2-1.8v-36c0-1.1-0.7-2-1.8-2h-4.9C215.6,42.4,214.7,43,214.7,44.4z M135.1,67c-0.6-0.9-0.3-1.9,0.8-2.2   c0,0,4.1-1.2,6.1-3c2-1.8,3-4.3,3-7.6c0-2.2-0.4-4-1.1-5.5c-0.8-1.5-1.8-2.7-3.3-3.6c-1.4-0.9-3.1-1.6-5.1-2   c-2-0.4-4.6-0.6-4.6-0.6c-1.1,0-2.8-0.1-3.9-0.1h-19.7c-1.1,0-2,0.9-2,2v36c0,1.1,0.9,1.8,2,1.8h4.7c1.1,0,2-0.7,2-1.8   c0,0,0-14.3,0-14.3c0,0,0,0,0,0c0,0,8.9,0,8.9,0c1.1,0,2.5,0.7,3.1,1.6l9.2,12.9c0.9,1.1,1.7,1.6,2.7,1.6h6.1c1.1,0,1.2-1,0.9-1.5   C144.3,80,135.1,67,135.1,67z M131.4,59.7c-1.2,0.3-2.6,0.3-2.6,0.3c-1.1,0-2.8,0.1-3.9,0.1h-9.1c-1.1,0-2-0.9-2-2v-7.3   c0-1.1,0.9-2,2-2h9.1c1.1,0,2.8,0,3.9,0.1c0,0,1.4,0.1,2.6,0.3c1.2,0.3,2.2,0.7,2.9,1.2c0.7,0.5,1.2,1.1,1.5,1.8   c0.3,0.7,0.5,1.4,0.5,2.2c0,0.8-0.2,1.6-0.5,2.2c-0.3,0.7-0.8,1.3-1.5,1.8C133.5,59,132.6,59.4,131.4,59.7z M273,42.4   c-1.1,0-1.9,0.7-1.9,1.7c0,0.5,0,23,0,23c0,1.1-0.6,1.3-1.4,0.5l-23.1-23.9c-0.7-0.8-1.8-1.4-3.3-1.4H239c-1.4,0-2,0.7-2,1.5   c0,0.7,0,36.1,0,36.8c0,0.7,0.7,1.4,1.8,1.4h4.3c1.1,0,1.8-0.6,1.8-1.6c0-0.5,0-24.3,0-24.3c0-1.1,0.6-1.3,1.4-0.5l24.1,25   c0.8,0.8,1.7,1.4,3.3,1.4h3.3c1.1,0,2-0.9,2-2V44.3c0-1.1-0.9-2-2-2H273z M179,64.8c-0.5,0.9-1.4,0.9-1.9,0l-11.3-20.7   c-0.5-1-1.5-1.8-2.8-1.8h-6.1c-1.1,0-2,0.9-2,2v36c0,1.1,0.7,1.8,2,1.8h3.8c1.1,0,1.9-0.7,1.9-1.7c0-0.5,0-26.2,0.1-26.2   c0,0,14.1,26.2,14.1,26.2c0.5,0.9,1.8,1,2.3,0c0,0,14.1-26.1,14.2-26.1c0,0,0,25.3,0,26.1c0,1,0.8,1.7,1.9,1.7h4.4c1.1,0,2-0.5,2-2   V44.3c0-1.1-0.9-2-2-2h-5.9c-1.5,0-2.4,0.8-2.9,1.7L179,64.8z"/>
</g>
<g>
	<path fill="#231F20" d="M5.2,62.2C5.2,81.6,25,82.6,29,82.6c13.2,0,18.7-3.6,19-3.7c0.8-0.5,1.8-1.4,1.8-3.2V62.3   c0-1.2-1-2.2-2.2-2.2H31c-1.2,0-2,1-2,2.2v1.4c0,1.2,0.8,2.2,2,2.2h9.6c0.9,0,1.7,0.8,1.7,1.7c0,0,0,5.9,0,6.2   c-1.9,0.8-10.5,3.3-17.4,1.6C14.8,73.1,14,64.8,14,62.3c0-2.1,0.6-12.5,13-13.6c10-0.9,16.5,3.2,16.6,3.2c1.2,0.6,2.4,0.2,3-1.1   c0,0,1.2-2.5,1.2-2.5c0.5-1,0.3-2.1-0.9-3c-0.1,0-7.1-3.8-17.9-3.8C5.8,41.6,5.2,60.1,5.2,62.2z"/>
</g>
<g>
	<g>
		<defs>
			<path id="SVGID_1_" d="M270.8,32.4l-26,0c-1,0-1.8-0.5-2.2-1.3c-0.5-0.8-0.5-1.8,0-2.6l13-22.5c0.5-0.8,1.3-1.3,2.2-1.3     c1,0,1.8,0.5,2.2,1.3l13,22.5c0.5,0.8,0.5,1.8,0,2.6C272.6,32,271.8,32.4,270.8,32.4z"/>
		</defs>
		<use xlink:href="#SVGID_1_" overflow="visible" fill-rule="evenodd" clip-rule="evenodd" fill="#0071CE"/>
		<clipPath id="SVGID_2_">
			<use xlink:href="#SVGID_1_" overflow="visible"/>
		</clipPath>
	</g>
</g>
<g>
	<path fill="#231F20" d="M288.7,73.8c2.5,0,4.5,2,4.5,4.5c0,2.5-2,4.5-4.5,4.5c-2.5,0-4.5-2-4.5-4.5   C284.2,75.9,286.2,73.8,288.7,73.8z M288.7,82.2c2.1,0,3.7-1.7,3.7-3.9s-1.6-3.9-3.7-3.9c-2.1,0-3.7,1.7-3.7,3.9   S286.6,82.2,288.7,82.2z M287,75.7h2c1.2,0,1.8,0.5,1.8,1.5c0,0.9-0.5,1.5-1.4,1.5L291,81h-0.9l-1.5-2.3h-0.7V81H287V75.7z    M287.9,78h1c0.7,0,1.1-0.1,1.1-0.8c0-0.6-0.5-0.8-1.1-0.8h-1V78z"/>
</g>
</svg>