<?xml version="1.0" standalone="no"?>
<!DOCTYPE svg PUBLIC "-//W3C//DTD SVG 20010904//EN"
 "http://www.w3.org/TR/2001/REC-SVG-20010904/DTD/svg10.dtd">
<svg version="1.0" xmlns="http://www.w3.org/2000/svg"
 width="16.000000pt" height="16.000000pt" viewBox="0 0 16.000000 16.000000"
 preserveAspectRatio="xMidYMid meet">
<metadata>
Created by potrace 1.11, written by Peter Selinger 2001-2013
</metadata>
<g transform="translate(0.000000,16.000000) scale(0.005333,-0.005333)"
fill="#000000" stroke="none">
<path d="M745 2250 l-750 -750 753 -753 752 -752 752 752 753 753 -750 750
c-412 412 -752 750 -755 750 -3 0 -343 -338 -755 -750z m1008 136 c308 -91
538 -321 633 -631 25 -83 28 -104 28 -255 0 -151 -3 -173 -27 -253 -48 -157
-125 -286 -236 -397 -254 -253 -631 -335 -969 -211 -149 54 -271 140 -386 272
-228 261 -279 666 -125 986 124 258 358 443 639 504 124 28 322 21 443 -15z"/>
<path d="M1340 2315 c-209 -41 -400 -167 -521 -342 -168 -243 -194 -553 -70
-819 104 -222 287 -378 526 -450 77 -23 109 -27 220 -27 154 -1 227 15 360 78
104 49 196 115 260 188 304 345 282 855 -49 1165 -190 178 -472 258 -726 207z
m-263 -632 c56 -26 63 -52 63 -228 l0 -155 -60 0 c-47 0 -60 3 -60 15 0 19 -9
19 -32 -2 -23 -21 -126 -30 -157 -13 -33 17 -61 70 -61 113 0 84 47 121 174
139 39 5 72 11 74 13 2 2 -1 12 -7 24 -20 36 -84 38 -188 6 -22 -7 -23 -5 -23
43 l0 50 53 11 c67 13 180 5 224 -16z m440 2 c31 -13 33 -17 33 -64 0 -28 -3
-51 -7 -51 -3 0 -30 12 -59 26 -62 30 -99 27 -135 -12 -20 -22 -24 -36 -24
-91 0 -59 3 -67 28 -89 36 -30 98 -32 145 -4 18 11 37 20 42 20 6 0 10 -23 10
-51 0 -48 -1 -51 -37 -65 -26 -11 -61 -15 -118 -12 -68 2 -88 7 -122 30 -56
37 -78 86 -78 173 0 114 42 173 144 202 51 14 127 9 178 -12z m403 2 c8 -7 21
-20 28 -29 12 -16 16 -15 53 12 51 37 86 44 134 28 65 -22 75 -55 75 -240 l0
-158 -60 0 -60 0 0 124 c0 150 -7 176 -50 176 -68 0 -70 -6 -70 -160 l0 -140
-60 0 -60 0 0 124 c0 152 -7 176 -53 176 -53 0 -57 -10 -57 -162 l0 -138 -65
0 -65 0 0 200 0 200 61 0 c51 0 62 -3 66 -18 4 -17 7 -17 51 5 49 25 99 25
132 0z"/>
<path d="M943 1473 c-30 -6 -45 -27 -41 -59 4 -36 45 -51 85 -32 23 11 29 20
31 56 3 40 2 42 -25 41 -15 -1 -38 -4 -50 -6z"/>
</g>
</svg>
