<?xml version="1.0" standalone="no"?>
<!DOCTYPE svg PUBLIC "-//W3C//DTD SVG 20010904//EN"
 "http://www.w3.org/TR/2001/REC-SVG-20010904/DTD/svg10.dtd">
<svg version="1.0" xmlns="http://www.w3.org/2000/svg"
 width="16.000000pt" height="16.000000pt" viewBox="0 0 16.000000 16.000000"
 preserveAspectRatio="xMidYMid meet">
<metadata>
Created by potrace 1.11, written by Peter Selinger 2001-2013
</metadata>
<g transform="translate(0.000000,16.000000) scale(0.005333,-0.005333)"
fill="#000000" stroke="none">
<path d="M751 2249 l-755 -750 752 -752 752 -752 752 753 753 752 -750 749
-750 750 -754 -750z m974 147 c209 -57 404 -188 520 -350 55 -77 118 -208 146
-301 26 -91 36 -286 20 -390 -59 -361 -322 -649 -682 -747 -113 -30 -327 -32
-439 -4 -338 86 -591 332 -682 662 -32 117 -32 356 0 468 101 351 355 590 713
671 84 19 320 14 404 -9z"/>
<path d="M1385 2324 c-178 -29 -348 -115 -470 -238 -106 -106 -177 -231 -216
-377 -34 -124 -32 -310 5 -432 47 -156 111 -262 229 -373 178 -170 403 -247
654 -223 338 31 618 269 715 606 19 65 22 102 22 218 -1 122 -4 151 -28 230
-85 281 -293 484 -579 566 -71 20 -265 33 -332 23z m-331 -632 c85 -29 91 -46
91 -235 l0 -162 -62 -3 c-59 -3 -63 -1 -63 18 l0 22 -32 -20 c-103 -62 -218
-13 -218 94 0 94 51 136 183 149 70 8 77 13 52 39 -25 25 -78 29 -138 12 -30
-9 -58 -16 -61 -16 -3 0 -6 22 -6 49 l0 50 43 9 c67 15 158 13 211 -6z m444 3
l52 -16 0 -54 c0 -30 -4 -55 -9 -55 -6 0 -26 9 -45 21 -50 29 -122 24 -149
-12 -41 -56 -29 -161 22 -189 35 -18 94 -12 132 15 20 13 39 21 43 18 3 -4 6
-30 6 -59 0 -52 -1 -53 -37 -65 -21 -8 -67 -13 -103 -13 -129 0 -210 68 -218
183 -8 115 34 189 128 221 67 24 111 25 178 5z m407 1 c18 -8 39 -24 45 -36
12 -22 12 -22 33 -2 30 27 81 52 107 52 38 0 89 -28 104 -59 13 -24 16 -65 16
-196 l0 -165 -59 0 -58 0 -5 139 c-3 94 -9 145 -17 155 -16 19 -64 21 -79 3
-7 -8 -13 -71 -14 -153 l-3 -139 -62 -3 -63 -3 0 119 c0 153 -5 180 -37 188
-13 4 -35 2 -49 -5 -24 -10 -24 -12 -24 -156 l0 -145 -65 0 -65 0 0 205 0 205
65 0 c59 0 65 -2 65 -21 0 -20 0 -20 28 -1 50 35 84 40 137 18z"/>
<path d="M932 1465 c-29 -13 -33 -19 -30 -47 3 -30 6 -33 40 -36 57 -5 78 11
78 58 0 37 -2 40 -27 40 -16 -1 -43 -7 -61 -15z"/>
</g>
</svg>
